<mxfile host="app.diagrams.net" modified="2020-05-26T22:02:10.393Z" agent="5.0 (Windows NT 10.0; Win64; x64) AppleWebKit/537.36 (KHTML, like Gecko) Chrome/83.0.4103.61 Safari/537.36 Edg/83.0.478.37" etag="acQo4Kho1T_bBVEk79DW" version="12.9.14" type="github">
  <diagram name="Page-1" id="74e2e168-ea6b-b213-b513-2b3c1d86103e">
    <mxGraphModel dx="868" dy="482" grid="1" gridSize="10" guides="1" tooltips="1" connect="1" arrows="1" fold="1" page="1" pageScale="1" pageWidth="1100" pageHeight="850" background="#ffffff" math="0" shadow="0">
      <root>
        <mxCell id="0" />
        <mxCell id="1" parent="0" />
        <mxCell id="77e6c97f196da883-1" value="&lt;font style=&quot;font-size: 12px&quot;&gt;Reporte de Escuelas&lt;/font&gt;" style="swimlane;html=1;childLayout=stackLayout;startSize=20;rounded=0;shadow=0;labelBackgroundColor=none;strokeWidth=1;fontFamily=Verdana;fontSize=8;align=center;" parent="1" vertex="1">
          <mxGeometry x="270" y="30" width="430" height="750" as="geometry" />
        </mxCell>
        <mxCell id="77e6c97f196da883-2" value="Administrador" style="swimlane;html=1;startSize=20;" parent="77e6c97f196da883-1" vertex="1">
          <mxGeometry y="20" width="190" height="730" as="geometry" />
        </mxCell>
        <mxCell id="vOMsfi6EYFjWn-TktzvQ-3" style="edgeStyle=orthogonalEdgeStyle;rounded=0;orthogonalLoop=1;jettySize=auto;html=1;exitX=0.5;exitY=1;exitDx=0;exitDy=0;exitPerimeter=0;entryX=0.5;entryY=0;entryDx=0;entryDy=0;" parent="77e6c97f196da883-2" source="vOMsfi6EYFjWn-TktzvQ-2" target="77e6c97f196da883-8" edge="1">
          <mxGeometry relative="1" as="geometry" />
        </mxCell>
        <mxCell id="vOMsfi6EYFjWn-TktzvQ-4" value="&lt;font style=&quot;font-size: 12px&quot;&gt;El administrador manda un correo a la escuela solicitando el reporte&lt;/font&gt;" style="rounded=1;whiteSpace=wrap;html=1;shadow=0;labelBackgroundColor=none;strokeWidth=1;fontFamily=Verdana;fontSize=8;align=center;" parent="77e6c97f196da883-2" vertex="1">
          <mxGeometry x="20" y="250" width="110" height="120" as="geometry" />
        </mxCell>
        <mxCell id="vOMsfi6EYFjWn-TktzvQ-5" style="edgeStyle=orthogonalEdgeStyle;rounded=0;orthogonalLoop=1;jettySize=auto;html=1;exitX=0.5;exitY=1;exitDx=0;exitDy=0;entryX=0.5;entryY=0;entryDx=0;entryDy=0;" parent="77e6c97f196da883-2" source="77e6c97f196da883-8" target="vOMsfi6EYFjWn-TktzvQ-4" edge="1">
          <mxGeometry relative="1" as="geometry" />
        </mxCell>
        <mxCell id="vOMsfi6EYFjWn-TktzvQ-15" value="" style="verticalLabelPosition=bottom;html=1;verticalAlign=top;strokeWidth=2;shape=mxgraph.lean_mapping.sequenced_pull_ball;" parent="77e6c97f196da883-2" vertex="1">
          <mxGeometry x="65" y="610" width="50" height="50" as="geometry" />
        </mxCell>
        <mxCell id="vOMsfi6EYFjWn-TktzvQ-2" value="" style="strokeWidth=2;html=1;shape=mxgraph.flowchart.start_2;whiteSpace=wrap;" parent="77e6c97f196da883-2" vertex="1">
          <mxGeometry x="67.5" y="40" width="35" height="40" as="geometry" />
        </mxCell>
        <mxCell id="77e6c97f196da883-8" value="&lt;font style=&quot;font-size: 12px&quot;&gt;El administrador requiere un informe de la escuela para la demanda&lt;/font&gt;" style="rounded=1;whiteSpace=wrap;html=1;shadow=0;labelBackgroundColor=none;strokeWidth=1;fontFamily=Verdana;fontSize=8;align=center;" parent="77e6c97f196da883-2" vertex="1">
          <mxGeometry x="20" y="100" width="130" height="90" as="geometry" />
        </mxCell>
        <mxCell id="vOMsfi6EYFjWn-TktzvQ-17" style="edgeStyle=orthogonalEdgeStyle;rounded=0;orthogonalLoop=1;jettySize=auto;html=1;exitX=0.5;exitY=1;exitDx=0;exitDy=0;entryX=0.5;entryY=0;entryDx=0;entryDy=0;" parent="77e6c97f196da883-2" source="vOMsfi6EYFjWn-TktzvQ-13" target="vOMsfi6EYFjWn-TktzvQ-15" edge="1">
          <mxGeometry relative="1" as="geometry" />
        </mxCell>
        <mxCell id="vOMsfi6EYFjWn-TktzvQ-13" value="&lt;font style=&quot;font-size: 12px&quot;&gt;El administrador recibe el informe de la escuela&lt;/font&gt;" style="rounded=1;whiteSpace=wrap;html=1;shadow=0;labelBackgroundColor=none;strokeWidth=1;fontFamily=Verdana;fontSize=8;align=center;" parent="77e6c97f196da883-2" vertex="1">
          <mxGeometry x="40" y="450" width="100" height="100" as="geometry" />
        </mxCell>
        <mxCell id="vOMsfi6EYFjWn-TktzvQ-11" value="No" style="edgeStyle=segmentEdgeStyle;endArrow=classic;html=1;exitX=0.5;exitY=1;exitDx=0;exitDy=0;exitPerimeter=0;entryX=0.5;entryY=0;entryDx=0;entryDy=0;" parent="77e6c97f196da883-1" source="vOMsfi6EYFjWn-TktzvQ-9" target="vOMsfi6EYFjWn-TktzvQ-13" edge="1">
          <mxGeometry width="50" height="50" relative="1" as="geometry">
            <mxPoint x="120" y="350" as="sourcePoint" />
            <mxPoint x="100" y="480" as="targetPoint" />
            <Array as="points">
              <mxPoint x="305" y="400" />
              <mxPoint x="90" y="400" />
            </Array>
          </mxGeometry>
        </mxCell>
        <mxCell id="vOMsfi6EYFjWn-TktzvQ-12" value="Sí" style="edgeStyle=elbowEdgeStyle;elbow=horizontal;endArrow=classic;html=1;exitX=1;exitY=0.5;exitDx=0;exitDy=0;exitPerimeter=0;entryX=1;entryY=0.5;entryDx=0;entryDy=0;" parent="77e6c97f196da883-1" source="vOMsfi6EYFjWn-TktzvQ-9" target="vOMsfi6EYFjWn-TktzvQ-13" edge="1">
          <mxGeometry x="-0.1765" width="50" height="50" relative="1" as="geometry">
            <mxPoint x="120" y="350" as="sourcePoint" />
            <mxPoint x="170" y="300" as="targetPoint" />
            <Array as="points">
              <mxPoint x="410" y="390" />
            </Array>
            <mxPoint as="offset" />
          </mxGeometry>
        </mxCell>
        <mxCell id="77e6c97f196da883-3" value="Director de cada Escuela" style="swimlane;html=1;startSize=20;" parent="77e6c97f196da883-1" vertex="1">
          <mxGeometry x="190" y="20" width="240" height="730" as="geometry" />
        </mxCell>
        <mxCell id="vOMsfi6EYFjWn-TktzvQ-10" style="edgeStyle=orthogonalEdgeStyle;rounded=0;orthogonalLoop=1;jettySize=auto;html=1;exitX=0.5;exitY=1;exitDx=0;exitDy=0;entryX=0.5;entryY=0;entryDx=0;entryDy=0;entryPerimeter=0;" parent="77e6c97f196da883-3" source="77e6c97f196da883-11" target="vOMsfi6EYFjWn-TktzvQ-9" edge="1">
          <mxGeometry relative="1" as="geometry" />
        </mxCell>
        <mxCell id="77e6c97f196da883-11" value="&lt;div&gt;&lt;span style=&quot;font-size: 12px&quot;&gt;El director de la escuela recibe el correo con la petición del informe&lt;/span&gt;&lt;/div&gt;" style="rounded=1;whiteSpace=wrap;html=1;shadow=0;labelBackgroundColor=none;strokeWidth=1;fontFamily=Verdana;fontSize=8;align=center;" parent="77e6c97f196da883-3" vertex="1">
          <mxGeometry x="60" y="70" width="110" height="75" as="geometry" />
        </mxCell>
        <mxCell id="vOMsfi6EYFjWn-TktzvQ-9" value="&lt;span style=&quot;font-family: &amp;#34;verdana&amp;#34;&quot;&gt;El director de la escuela&lt;/span&gt;&amp;nbsp;realiza y envía el informe" style="strokeWidth=2;html=1;shape=mxgraph.flowchart.decision;whiteSpace=wrap;" parent="77e6c97f196da883-3" vertex="1">
          <mxGeometry x="45" y="200" width="140" height="110" as="geometry" />
        </mxCell>
        <mxCell id="vOMsfi6EYFjWn-TktzvQ-7" value="" style="edgeStyle=segmentEdgeStyle;endArrow=classic;html=1;entryX=0;entryY=0.5;entryDx=0;entryDy=0;exitX=1;exitY=0.5;exitDx=0;exitDy=0;" parent="77e6c97f196da883-1" source="vOMsfi6EYFjWn-TktzvQ-4" target="77e6c97f196da883-11" edge="1">
          <mxGeometry width="50" height="50" relative="1" as="geometry">
            <mxPoint x="130" y="240" as="sourcePoint" />
            <mxPoint x="180" y="190" as="targetPoint" />
            <Array as="points">
              <mxPoint x="170" y="330" />
              <mxPoint x="170" y="128" />
              <mxPoint x="230" y="128" />
            </Array>
          </mxGeometry>
        </mxCell>
      </root>
    </mxGraphModel>
  </diagram>
</mxfile>
